<?xml version="1.0" encoding="UTF-8" standalone="no"?>
<svg
        width="51.010929mm"
        height="45.993401mm"
        viewBox="0 0 180.74739 162.96874"
        id="svg4192"
        version="1.1"
        xmlns="http://www.w3.org/2000/svg"
        xmlns:xlink="http://www.w3.org/1999/xlink"
        xml:space="preserve"
        style="fill-rule:evenodd;clip-rule:evenodd;stroke-linejoin:round;stroke-miterlimit:1.41421;">
    <g id="Livello-1">
        <path d="M17.765,149.711l-3.113,-5.479l-7.474,13.146l6.399,0l4.272,-7.517l-0.084,-0.15l0,0Z" style="fill:#ffc107;fill-rule:nonzero;"/>
        <path d="M11.284,138.308l3.368,5.924l-7.474,13.146l-6.736,0l10.842,-19.07l0,0Z" style="fill:#0f9d58;fill-rule:nonzero;"/>
        <path d="M7.178,119.238l-6.736,0l17.408,30.623l3.365,-5.921l0.002,-0.006l-14.039,-24.696l0,0Z" style="fill:#4285f4;fill-rule:nonzero;"/>
        <path d="M23.399,140.096c0.63,-1.106 0.63,-2.47 0,-3.577l-9.822,-17.281l-6.399,0l14.039,24.696l2.182,-3.838Z" style="fill:#db4437;fill-rule:nonzero;"/>
        <path d="M41.653,136.215l0,5.032l4.221,0l0,3.768c-0.795,0.192 -1.672,0.277 -2.624,0.277c-1.741,0 -3.068,-0.581 -3.982,-1.764c-0.931,-1.182 -1.388,-2.899 -1.388,-5.15c0,-2.3 0.502,-4.06 1.53,-5.297c1.019,-1.229 2.467,-1.855 4.326,-1.855c2.041,0 3.915,0.426 5.618,1.282l2.034,-5.105c-0.983,-0.435 -2.138,-0.794 -3.467,-1.076c-1.32,-0.29 -2.722,-0.427 -4.213,-0.427c-3.931,0 -6.984,1.068 -9.165,3.236c-2.184,2.167 -3.271,5.188 -3.271,9.073c0,3.991 0.99,7.066 2.985,9.218c1.995,2.152 4.814,3.227 8.459,3.227c3.33,0 6.376,-0.481 9.151,-1.449l0,-12.99l-10.214,0l0,0Z" style="fill:#fff;"/>
        <path d="M67.459,143.26c-0.9,1.152 -2.325,1.725 -4.274,1.725l-1.426,0l0,-13.493l1.86,0c1.747,0 3.058,0.534 3.914,1.596c0.855,1.067 1.283,2.7 1.283,4.914c0,2.358 -0.45,4.121 -1.357,5.258m4.897,-14.058c-2.07,-1.975 -5.003,-2.969 -8.797,-2.969l-8.19,0l0,24.086l7.658,0c3.938,0 6.997,-1.084 9.165,-3.259c2.182,-2.174 3.261,-5.274 3.261,-9.287c0,-3.739 -1.027,-6.6 -3.097,-8.571" style="fill:#fff;"/>
        <path d="M87.873,136.215l0,5.032l4.23,0l0,3.768c-0.795,0.192 -1.674,0.277 -2.626,0.277c-1.739,0 -3.067,-0.581 -3.989,-1.764c-0.922,-1.182 -1.38,-2.899 -1.38,-5.15c0,-2.3 0.51,-4.06 1.524,-5.297c1.027,-1.229 2.466,-1.855 4.334,-1.855c2.039,0 3.915,0.426 5.619,1.282l2.023,-5.105c-0.982,-0.435 -2.137,-0.794 -3.45,-1.076c-1.327,-0.29 -2.736,-0.427 -4.222,-0.427c-3.931,0 -6.99,1.068 -9.165,3.236c-2.183,2.167 -3.269,5.188 -3.269,9.073c0,3.991 0.996,7.066 2.984,9.218c1.995,2.152 4.815,3.227 8.46,3.227c3.322,0 6.375,-0.481 9.15,-1.449l0,-12.99l-10.223,0l0,0Z" style="fill:#fff;"/>
        <rect x="108.092" y="125.814" width="4.604" height="24.845" style="fill:#fff;"/>
        <path d="M118.562,137.543l-2.933,0l0,-3.887l2.933,0l0,-5.205l4.468,0l0,5.205l4.092,0l0,3.887l-4.092,0l0,6.593c0,0.393 0.039,0.757 0.119,1.093c0.08,0.335 0.233,0.618 0.46,0.85c0.319,0.37 0.773,0.555 1.365,0.555c0.386,0 0.693,-0.04 0.92,-0.121c0.228,-0.081 0.444,-0.191 0.648,-0.33l1.262,3.99c-0.523,0.255 -1.085,0.446 -1.688,0.573c-0.602,0.127 -1.267,0.191 -1.995,0.191c-0.841,0 -1.597,-0.133 -2.268,-0.399c-0.671,-0.266 -1.233,-0.631 -1.688,-1.093c-1.069,-1.041 -1.603,-2.522 -1.603,-4.442l0,-7.46l0,0Z" style="fill:#fff;fill-rule:nonzero;"/>
        <path d="M140.354,148.855l-0.272,0c-0.523,0.648 -1.154,1.203 -1.893,1.665c-0.739,0.463 -1.688,0.694 -2.848,0.694c-0.864,0 -1.677,-0.144 -2.438,-0.433c-0.762,-0.289 -1.427,-0.689 -1.995,-1.197c-0.569,-0.509 -1.012,-1.122 -1.33,-1.84c-0.319,-0.717 -0.478,-1.503 -0.478,-2.359c0,-0.879 0.171,-1.672 0.512,-2.377c0.341,-0.706 0.818,-1.313 1.432,-1.822c0.614,-0.509 1.336,-0.896 2.166,-1.162c0.83,-0.266 1.733,-0.399 2.711,-0.399c1.091,0 1.989,0.086 2.694,0.26c0.705,0.173 1.285,0.353 1.739,0.538l0,-0.521c0,-0.902 -0.352,-1.648 -1.057,-2.238c-0.705,-0.59 -1.58,-0.885 -2.626,-0.885c-1.546,0 -2.853,0.659 -3.922,1.978l-3.24,-2.256c1.774,-2.267 4.195,-3.4 7.265,-3.4c2.591,0 4.569,0.619 5.934,1.856c1.364,1.238 2.046,3.071 2.046,5.5l0,10.202l-4.4,0l0,-1.804l0,0Zm0,-5.101c-0.522,-0.255 -1.062,-0.457 -1.62,-0.607c-0.557,-0.151 -1.165,-0.226 -1.824,-0.226c-1.069,0 -1.893,0.237 -2.473,0.711c-0.579,0.475 -0.869,1.059 -0.869,1.753c0,0.694 0.278,1.249 0.835,1.665c0.557,0.417 1.2,0.625 1.927,0.625c0.591,0 1.137,-0.11 1.637,-0.33c0.5,-0.219 0.927,-0.509 1.279,-0.867c0.352,-0.359 0.625,-0.775 0.819,-1.249c0.193,-0.475 0.289,-0.966 0.289,-1.475l0,0Z" style="fill:#fff;fill-rule:nonzero;"/>
        <rect x="148.301" y="125.814" width="4.468" height="24.845" style="fill:#fff;"/>
        <path d="M159.077,131.192c-0.386,0 -0.756,-0.075 -1.108,-0.225c-0.352,-0.151 -0.659,-0.359 -0.921,-0.625c-0.261,-0.266 -0.466,-0.572 -0.614,-0.919c-0.147,-0.347 -0.221,-0.729 -0.221,-1.145c0,-0.417 0.074,-0.799 0.221,-1.146c0.148,-0.347 0.353,-0.653 0.614,-0.919c0.262,-0.266 0.569,-0.474 0.921,-0.625c0.352,-0.15 0.722,-0.225 1.108,-0.225c0.796,0 1.478,0.283 2.047,0.85c0.568,0.567 0.852,1.255 0.852,2.065c0,0.809 -0.284,1.497 -0.852,2.064c-0.569,0.567 -1.251,0.85 -2.047,0.85l0,0Zm-2.216,19.467l0,-17.003l4.467,0l0,17.003l-4.467,0Z" style="fill:#fff;fill-rule:nonzero;"/>
        <path d="M175.55,148.855l-0.273,0c-0.523,0.648 -1.154,1.203 -1.893,1.665c-0.739,0.463 -1.688,0.694 -2.848,0.694c-0.864,0 -1.676,-0.144 -2.438,-0.433c-0.762,-0.289 -1.427,-0.689 -1.995,-1.197c-0.569,-0.509 -1.012,-1.122 -1.33,-1.84c-0.318,-0.717 -0.478,-1.503 -0.478,-2.359c0,-0.879 0.171,-1.672 0.512,-2.377c0.341,-0.706 0.818,-1.313 1.432,-1.822c0.614,-0.509 1.336,-0.896 2.166,-1.162c0.83,-0.266 1.734,-0.399 2.711,-0.399c1.091,0 1.99,0.086 2.694,0.26c0.705,0.173 1.285,0.353 1.74,0.538l0,-0.521c0,-0.902 -0.353,-1.648 -1.058,-2.238c-0.704,-0.59 -1.58,-0.885 -2.626,-0.885c-1.546,0 -2.853,0.659 -3.922,1.978l-3.239,-2.256c1.773,-2.267 4.194,-3.4 7.264,-3.4c2.592,0 4.57,0.619 5.934,1.856c1.364,1.238 2.046,3.071 2.046,5.5l0,10.202l-4.399,0l0,-1.804l0,0Zm0,-5.101c-0.523,-0.255 -1.063,-0.457 -1.62,-0.607c-0.557,-0.151 -1.165,-0.226 -1.825,-0.226c-1.068,0 -1.893,0.237 -2.472,0.711c-0.58,0.475 -0.87,1.059 -0.87,1.753c0,0.694 0.278,1.249 0.836,1.665c0.557,0.417 1.199,0.625 1.926,0.625c0.592,0 1.137,-0.11 1.637,-0.33c0.501,-0.219 0.927,-0.509 1.279,-0.867c0.353,-0.359 0.626,-0.775 0.819,-1.249c0.193,-0.475 0.29,-0.966 0.29,-1.475Z" style="fill:#fff;fill-rule:nonzero;"/>
        <path d="M17.765,92.711l-3.113,-5.479l-7.474,13.146l6.399,0l4.272,-7.517l-0.084,-0.15l0,0Z" style="fill:#c6c6c6;fill-rule:nonzero;"/>
        <path d="M11.284,81.308l3.368,5.924l-7.474,13.146l-6.736,0l10.842,-19.07l0,0Z" style="fill:#7a7a7a;fill-rule:nonzero;"/>
        <path d="M7.178,62.238l-6.736,0l17.408,30.623l3.365,-5.921l0.002,-0.006l-14.039,-24.696l0,0Z" style="fill:#838383;fill-rule:nonzero;"/>
        <path d="M23.399,83.096c0.63,-1.106 0.63,-2.47 0,-3.577l-9.822,-17.281l-6.399,0l14.039,24.696l2.182,-3.838Z" style="fill:#6f6f6f;fill-rule:nonzero;"/>
        <path d="M41.653,79.215l0,5.032l4.221,0l0,3.768c-0.795,0.192 -1.672,0.277 -2.624,0.277c-1.741,0 -3.068,-0.581 -3.982,-1.764c-0.931,-1.182 -1.388,-2.899 -1.388,-5.15c0,-2.3 0.502,-4.06 1.53,-5.297c1.019,-1.229 2.467,-1.855 4.326,-1.855c2.041,0 3.915,0.426 5.618,1.282l2.034,-5.105c-0.983,-0.435 -2.138,-0.794 -3.467,-1.076c-1.32,-0.29 -2.722,-0.427 -4.213,-0.427c-3.931,0 -6.984,1.068 -9.165,3.236c-2.184,2.167 -3.271,5.188 -3.271,9.073c0,3.991 0.99,7.066 2.985,9.218c1.995,2.152 4.814,3.227 8.459,3.227c3.33,0 6.376,-0.481 9.151,-1.449l0,-12.99l-10.214,0l0,0Z" style="fill:#4d4d4d;"/>
        <path d="M67.459,86.26c-0.9,1.152 -2.325,1.725 -4.274,1.725l-1.426,0l0,-13.493l1.86,0c1.747,0 3.058,0.534 3.914,1.596c0.855,1.067 1.283,2.7 1.283,4.914c0,2.358 -0.45,4.121 -1.357,5.258m4.897,-14.058c-2.07,-1.975 -5.003,-2.969 -8.797,-2.969l-8.19,0l0,24.086l7.658,0c3.938,0 6.997,-1.084 9.165,-3.259c2.182,-2.174 3.261,-5.274 3.261,-9.287c0,-3.739 -1.027,-6.6 -3.097,-8.571" style="fill:#4d4d4d;"/>
        <path d="M87.873,79.215l0,5.032l4.23,0l0,3.768c-0.795,0.192 -1.674,0.277 -2.626,0.277c-1.739,0 -3.067,-0.581 -3.989,-1.764c-0.922,-1.182 -1.38,-2.899 -1.38,-5.15c0,-2.3 0.51,-4.06 1.524,-5.297c1.027,-1.229 2.466,-1.855 4.334,-1.855c2.039,0 3.915,0.426 5.619,1.282l2.023,-5.105c-0.982,-0.435 -2.137,-0.794 -3.45,-1.076c-1.327,-0.29 -2.736,-0.427 -4.222,-0.427c-3.931,0 -6.99,1.068 -9.165,3.236c-2.183,2.167 -3.269,5.188 -3.269,9.073c0,3.991 0.996,7.066 2.984,9.218c1.995,2.152 4.815,3.227 8.46,3.227c3.322,0 6.375,-0.481 9.15,-1.449l0,-12.99l-10.223,0l0,0Z" style="fill:#4d4d4d;"/>
        <rect x="108.092" y="68.814" width="4.604" height="24.845" style="fill:#4d4d4d;"/>
        <path d="M118.562,80.543l-2.933,0l0,-3.887l2.933,0l0,-5.205l4.468,0l0,5.205l4.092,0l0,3.887l-4.092,0l0,6.593c0,0.393 0.039,0.757 0.119,1.093c0.08,0.335 0.233,0.618 0.46,0.85c0.319,0.37 0.773,0.555 1.365,0.555c0.386,0 0.693,-0.04 0.92,-0.121c0.228,-0.081 0.444,-0.191 0.648,-0.33l1.262,3.99c-0.523,0.255 -1.085,0.446 -1.688,0.573c-0.602,0.127 -1.267,0.191 -1.995,0.191c-0.841,0 -1.597,-0.133 -2.268,-0.399c-0.671,-0.266 -1.233,-0.631 -1.688,-1.093c-1.069,-1.041 -1.603,-2.522 -1.603,-4.442l0,-7.46l0,0Z" style="fill:#4d4d4d;fill-rule:nonzero;"/>
        <path d="M140.354,91.855l-0.272,0c-0.523,0.648 -1.154,1.203 -1.893,1.665c-0.739,0.463 -1.688,0.694 -2.848,0.694c-0.864,0 -1.677,-0.144 -2.438,-0.433c-0.762,-0.289 -1.427,-0.689 -1.995,-1.197c-0.569,-0.509 -1.012,-1.122 -1.33,-1.84c-0.319,-0.717 -0.478,-1.503 -0.478,-2.359c0,-0.879 0.171,-1.672 0.512,-2.377c0.341,-0.706 0.818,-1.313 1.432,-1.822c0.614,-0.509 1.336,-0.896 2.166,-1.162c0.83,-0.266 1.733,-0.399 2.711,-0.399c1.091,0 1.989,0.086 2.694,0.26c0.705,0.173 1.285,0.353 1.739,0.538l0,-0.521c0,-0.902 -0.352,-1.648 -1.057,-2.238c-0.705,-0.59 -1.58,-0.885 -2.626,-0.885c-1.546,0 -2.853,0.659 -3.922,1.978l-3.24,-2.256c1.774,-2.267 4.195,-3.4 7.265,-3.4c2.591,0 4.569,0.619 5.934,1.856c1.364,1.238 2.046,3.071 2.046,5.5l0,10.202l-4.4,0l0,-1.804l0,0Zm0,-5.101c-0.522,-0.255 -1.062,-0.457 -1.62,-0.607c-0.557,-0.151 -1.165,-0.226 -1.824,-0.226c-1.069,0 -1.893,0.237 -2.473,0.711c-0.579,0.475 -0.869,1.059 -0.869,1.753c0,0.694 0.278,1.249 0.835,1.665c0.557,0.417 1.2,0.625 1.927,0.625c0.591,0 1.137,-0.11 1.637,-0.33c0.5,-0.219 0.927,-0.509 1.279,-0.867c0.352,-0.359 0.625,-0.775 0.819,-1.249c0.193,-0.475 0.289,-0.966 0.289,-1.475l0,0Z" style="fill:#4d4d4d;fill-rule:nonzero;"/>
        <rect x="148.301" y="68.814" width="4.468" height="24.845" style="fill:#4d4d4d;"/>
        <path d="M159.077,74.192c-0.386,0 -0.756,-0.075 -1.108,-0.225c-0.352,-0.151 -0.659,-0.359 -0.921,-0.625c-0.261,-0.266 -0.466,-0.572 -0.614,-0.919c-0.147,-0.347 -0.221,-0.729 -0.221,-1.145c0,-0.417 0.074,-0.799 0.221,-1.146c0.148,-0.347 0.353,-0.653 0.614,-0.919c0.262,-0.266 0.569,-0.474 0.921,-0.625c0.352,-0.15 0.722,-0.225 1.108,-0.225c0.796,0 1.478,0.283 2.047,0.85c0.568,0.567 0.852,1.255 0.852,2.065c0,0.809 -0.284,1.497 -0.852,2.064c-0.569,0.567 -1.251,0.85 -2.047,0.85l0,0Zm-2.216,19.467l0,-17.003l4.467,0l0,17.003l-4.467,0Z" style="fill:#4d4d4d;fill-rule:nonzero;"/>
        <path d="M175.55,91.855l-0.273,0c-0.523,0.648 -1.154,1.203 -1.893,1.665c-0.739,0.463 -1.688,0.694 -2.848,0.694c-0.864,0 -1.676,-0.144 -2.438,-0.433c-0.762,-0.289 -1.427,-0.689 -1.995,-1.197c-0.569,-0.509 -1.012,-1.122 -1.33,-1.84c-0.318,-0.717 -0.478,-1.503 -0.478,-2.359c0,-0.879 0.171,-1.672 0.512,-2.377c0.341,-0.706 0.818,-1.313 1.432,-1.822c0.614,-0.509 1.336,-0.896 2.166,-1.162c0.83,-0.266 1.734,-0.399 2.711,-0.399c1.091,0 1.99,0.086 2.694,0.26c0.705,0.173 1.285,0.353 1.74,0.538l0,-0.521c0,-0.902 -0.353,-1.648 -1.058,-2.238c-0.704,-0.59 -1.58,-0.885 -2.626,-0.885c-1.546,0 -2.853,0.659 -3.922,1.978l-3.239,-2.256c1.773,-2.267 4.194,-3.4 7.264,-3.4c2.592,0 4.57,0.619 5.934,1.856c1.364,1.238 2.046,3.071 2.046,5.5l0,10.202l-4.399,0l0,-1.804l0,0Zm0,-5.101c-0.523,-0.255 -1.063,-0.457 -1.62,-0.607c-0.557,-0.151 -1.165,-0.226 -1.825,-0.226c-1.068,0 -1.893,0.237 -2.472,0.711c-0.58,0.475 -0.87,1.059 -0.87,1.753c0,0.694 0.278,1.249 0.836,1.665c0.557,0.417 1.199,0.625 1.926,0.625c0.592,0 1.137,-0.11 1.637,-0.33c0.501,-0.219 0.927,-0.509 1.279,-0.867c0.353,-0.359 0.626,-0.775 0.819,-1.249c0.193,-0.475 0.29,-0.966 0.29,-1.475Z" style="fill:#4d4d4d;fill-rule:nonzero;"/>
        <path d="M17.765,35.711l-3.113,-5.479l-7.474,13.146l6.399,0l4.272,-7.517l-0.084,-0.15l0,0Z" style="fill:#ffc107;fill-rule:nonzero;"/>
        <path d="M11.284,24.308l3.368,5.924l-7.474,13.146l-6.736,0l10.842,-19.07l0,0Z" style="fill:#0f9d58;fill-rule:nonzero;"/>
        <path d="M7.178,5.238l-6.736,0l17.408,30.623l3.365,-5.921l0.002,-0.006l-14.039,-24.696l0,0Z" style="fill:#4285f4;fill-rule:nonzero;"/>
        <path d="M23.399,26.096c0.63,-1.106 0.63,-2.47 0,-3.577l-9.822,-17.281l-6.399,0l14.039,24.696l2.182,-3.838Z" style="fill:#db4437;fill-rule:nonzero;"/>
        <path d="M41.653,22.215l0,5.032l4.221,0l0,3.768c-0.795,0.192 -1.672,0.277 -2.624,0.277c-1.741,0 -3.068,-0.581 -3.982,-1.764c-0.931,-1.182 -1.388,-2.899 -1.388,-5.15c0,-2.3 0.502,-4.06 1.53,-5.297c1.019,-1.229 2.467,-1.855 4.326,-1.855c2.041,0 3.915,0.426 5.618,1.282l2.034,-5.105c-0.983,-0.435 -2.138,-0.794 -3.467,-1.076c-1.32,-0.29 -2.722,-0.427 -4.213,-0.427c-3.931,0 -6.984,1.068 -9.165,3.236c-2.184,2.167 -3.271,5.188 -3.271,9.073c0,3.991 0.99,7.066 2.985,9.218c1.995,2.152 4.814,3.227 8.459,3.227c3.33,0 6.376,-0.481 9.151,-1.449l0,-12.99l-10.214,0l0,0Z" style="fill:#4d4d4d;"/>
        <path d="M67.459,29.26c-0.9,1.152 -2.325,1.725 -4.274,1.725l-1.426,0l0,-13.493l1.86,0c1.747,0 3.058,0.534 3.914,1.596c0.855,1.067 1.283,2.7 1.283,4.914c0,2.358 -0.45,4.121 -1.357,5.258m4.897,-14.058c-2.07,-1.975 -5.003,-2.969 -8.797,-2.969l-8.19,0l0,24.086l7.658,0c3.938,0 6.997,-1.084 9.165,-3.259c2.182,-2.174 3.261,-5.274 3.261,-9.287c0,-3.739 -1.027,-6.6 -3.097,-8.571" style="fill:#4d4d4d;"/>
        <path d="M87.873,22.215l0,5.032l4.23,0l0,3.768c-0.795,0.192 -1.674,0.277 -2.626,0.277c-1.739,0 -3.067,-0.581 -3.989,-1.764c-0.922,-1.182 -1.38,-2.899 -1.38,-5.15c0,-2.3 0.51,-4.06 1.524,-5.297c1.027,-1.229 2.466,-1.855 4.334,-1.855c2.039,0 3.915,0.426 5.619,1.282l2.023,-5.105c-0.982,-0.435 -2.137,-0.794 -3.45,-1.076c-1.327,-0.29 -2.736,-0.427 -4.222,-0.427c-3.931,0 -6.99,1.068 -9.165,3.236c-2.183,2.167 -3.269,5.188 -3.269,9.073c0,3.991 0.996,7.066 2.984,9.218c1.995,2.152 4.815,3.227 8.46,3.227c3.322,0 6.375,-0.481 9.15,-1.449l0,-12.99l-10.223,0l0,0Z" style="fill:#4d4d4d;"/>
        <rect x="108.092" y="11.814" width="4.604" height="24.845" style="fill:#4d4d4d;"/>
        <path d="M118.562,23.543l-2.933,0l0,-3.887l2.933,0l0,-5.205l4.468,0l0,5.205l4.092,0l0,3.887l-4.092,0l0,6.593c0,0.393 0.039,0.757 0.119,1.093c0.08,0.335 0.233,0.618 0.46,0.85c0.319,0.37 0.773,0.555 1.365,0.555c0.386,0 0.693,-0.04 0.92,-0.121c0.228,-0.081 0.444,-0.191 0.648,-0.33l1.262,3.99c-0.523,0.255 -1.085,0.446 -1.688,0.573c-0.602,0.127 -1.267,0.191 -1.995,0.191c-0.841,0 -1.597,-0.133 -2.268,-0.399c-0.671,-0.266 -1.233,-0.631 -1.688,-1.093c-1.069,-1.041 -1.603,-2.522 -1.603,-4.442l0,-7.46l0,0Z" style="fill:#4d4d4d;fill-rule:nonzero;"/>
        <path d="M140.354,34.855l-0.272,0c-0.523,0.648 -1.154,1.203 -1.893,1.665c-0.739,0.463 -1.688,0.694 -2.848,0.694c-0.864,0 -1.677,-0.144 -2.438,-0.433c-0.762,-0.289 -1.427,-0.689 -1.995,-1.197c-0.569,-0.509 -1.012,-1.122 -1.33,-1.84c-0.319,-0.717 -0.478,-1.503 -0.478,-2.359c0,-0.879 0.171,-1.672 0.512,-2.377c0.341,-0.706 0.818,-1.313 1.432,-1.822c0.614,-0.509 1.336,-0.896 2.166,-1.162c0.83,-0.266 1.733,-0.399 2.711,-0.399c1.091,0 1.989,0.086 2.694,0.26c0.705,0.173 1.285,0.353 1.739,0.538l0,-0.521c0,-0.902 -0.352,-1.648 -1.057,-2.238c-0.705,-0.59 -1.58,-0.885 -2.626,-0.885c-1.546,0 -2.853,0.659 -3.922,1.978l-3.24,-2.256c1.774,-2.267 4.195,-3.4 7.265,-3.4c2.591,0 4.569,0.619 5.934,1.856c1.364,1.238 2.046,3.071 2.046,5.5l0,10.202l-4.4,0l0,-1.804l0,0Zm0,-5.101c-0.522,-0.255 -1.062,-0.457 -1.62,-0.607c-0.557,-0.151 -1.165,-0.226 -1.824,-0.226c-1.069,0 -1.893,0.237 -2.473,0.711c-0.579,0.475 -0.869,1.059 -0.869,1.753c0,0.694 0.278,1.249 0.835,1.665c0.557,0.417 1.2,0.625 1.927,0.625c0.591,0 1.137,-0.11 1.637,-0.33c0.5,-0.219 0.927,-0.509 1.279,-0.867c0.352,-0.359 0.625,-0.775 0.819,-1.249c0.193,-0.475 0.289,-0.966 0.289,-1.475l0,0Z" style="fill:#4d4d4d;fill-rule:nonzero;"/>
        <rect x="148.301" y="11.814" width="4.468" height="24.845" style="fill:#4d4d4d;"/>
        <path d="M159.077,17.192c-0.386,0 -0.756,-0.075 -1.108,-0.225c-0.352,-0.151 -0.659,-0.359 -0.921,-0.625c-0.261,-0.266 -0.466,-0.572 -0.614,-0.919c-0.147,-0.347 -0.221,-0.729 -0.221,-1.145c0,-0.417 0.074,-0.799 0.221,-1.146c0.148,-0.347 0.353,-0.653 0.614,-0.919c0.262,-0.266 0.569,-0.474 0.921,-0.625c0.352,-0.15 0.722,-0.225 1.108,-0.225c0.796,0 1.478,0.283 2.047,0.85c0.568,0.567 0.852,1.255 0.852,2.065c0,0.809 -0.284,1.497 -0.852,2.064c-0.569,0.567 -1.251,0.85 -2.047,0.85l0,0Zm-2.216,19.467l0,-17.003l4.467,0l0,17.003l-4.467,0Z" style="fill:#4d4d4d;fill-rule:nonzero;"/>
        <path d="M175.55,34.855l-0.273,0c-0.523,0.648 -1.154,1.203 -1.893,1.665c-0.739,0.463 -1.688,0.694 -2.848,0.694c-0.864,0 -1.676,-0.144 -2.438,-0.433c-0.762,-0.289 -1.427,-0.689 -1.995,-1.197c-0.569,-0.509 -1.012,-1.122 -1.33,-1.84c-0.318,-0.717 -0.478,-1.503 -0.478,-2.359c0,-0.879 0.171,-1.672 0.512,-2.377c0.341,-0.706 0.818,-1.313 1.432,-1.822c0.614,-0.509 1.336,-0.896 2.166,-1.162c0.83,-0.266 1.734,-0.399 2.711,-0.399c1.091,0 1.99,0.086 2.694,0.26c0.705,0.173 1.285,0.353 1.74,0.538l0,-0.521c0,-0.902 -0.353,-1.648 -1.058,-2.238c-0.704,-0.59 -1.58,-0.885 -2.626,-0.885c-1.546,0 -2.853,0.659 -3.922,1.978l-3.239,-2.256c1.773,-2.267 4.194,-3.4 7.264,-3.4c2.592,0 4.57,0.619 5.934,1.856c1.364,1.238 2.046,3.071 2.046,5.5l0,10.202l-4.399,0l0,-1.804l0,0Zm0,-5.101c-0.523,-0.255 -1.063,-0.457 -1.62,-0.607c-0.557,-0.151 -1.165,-0.226 -1.825,-0.226c-1.068,0 -1.893,0.237 -2.472,0.711c-0.58,0.475 -0.87,1.059 -0.87,1.753c0,0.694 0.278,1.249 0.836,1.665c0.557,0.417 1.199,0.625 1.926,0.625c0.592,0 1.137,-0.11 1.637,-0.33c0.501,-0.219 0.927,-0.509 1.279,-0.867c0.353,-0.359 0.626,-0.775 0.819,-1.249c0.193,-0.475 0.29,-0.966 0.29,-1.475Z" style="fill:#4d4d4d;fill-rule:nonzero;"/>
    </g>
</svg>