<?xml version="1.0" encoding="UTF-8" standalone="no"?><!DOCTYPE svg PUBLIC "-//W3C//DTD SVG 1.1//EN" "http://www.w3.org/Graphics/SVG/1.1/DTD/svg11.dtd"><svg width="100%" height="100%" viewBox="0 0 486 99" version="1.1" xmlns="http://www.w3.org/2000/svg" xmlns:xlink="http://www.w3.org/1999/xlink" xml:space="preserve" style="fill-rule:evenodd;clip-rule:evenodd;stroke-linejoin:round;stroke-miterlimit:1.41421;"><g><path d="M45.714,79.037l-8.215,-14.212l-19.725,34.097l16.889,0l11.274,-19.498l-0.223,-0.387l0,0Z" style="fill:#b8b8b8;fill-rule:nonzero;"/><path d="M28.61,49.461l8.889,15.364l-19.725,34.096l-17.774,0l28.61,-49.46l0,0Z" style="fill:#767676;fill-rule:nonzero;"/><path d="M17.774,0l-17.774,0l45.938,79.424l8.88,-15.356l0.007,-0.014l-37.051,-64.054l0,0Z" style="fill:#7d7d7d;fill-rule:nonzero;"/><path d="M60.582,54.098c1.662,-2.867 1.662,-6.407 0,-9.276l-25.919,-44.822l-16.889,0l37.051,64.054l5.757,-9.956Z" style="fill:#656565;fill-rule:nonzero;"/></g><g><path d="M108.755,44.033l0,13.05l11.139,0l0,9.774c-2.097,0.498 -4.412,0.718 -6.925,0.718c-4.593,0 -8.096,-1.506 -10.509,-4.576c-2.456,-3.066 -3.662,-7.518 -3.662,-13.357c0,-5.964 1.325,-10.53 4.037,-13.738c2.691,-3.188 6.511,-4.812 11.418,-4.812c5.386,0 10.332,1.106 14.826,3.326l5.367,-13.24c-2.594,-1.129 -5.642,-2.059 -9.149,-2.792c-3.484,-0.751 -7.183,-1.107 -11.12,-1.107c-10.372,0 -18.43,2.77 -24.187,8.393c-5.762,5.619 -8.632,13.457 -8.632,23.532c0.001,10.35 2.615,18.328 7.88,23.908c5.264,5.581 12.704,8.37 22.322,8.37c8.789,-0.001 16.826,-1.246 24.149,-3.757l0,-33.692l-26.954,0l0,0Z" style="fill:#4d4d4d;"/><path d="M176.858,62.305c-2.377,2.987 -6.136,4.474 -11.28,4.474l-3.764,0l0,-34.996l4.909,0c4.609,0 8.071,1.386 10.33,4.138c2.256,2.769 3.383,7.005 3.383,12.747c0,6.114 -1.185,10.687 -3.578,13.637m12.921,-36.461c-5.461,-5.124 -13.202,-7.7 -23.214,-7.7l-21.612,0l0,62.468l20.207,0c10.393,0 18.465,-2.811 24.186,-8.451c5.759,-5.64 8.607,-13.679 8.607,-24.088c0,-9.697 -2.712,-17.117 -8.174,-22.229" style="fill:#4d4d4d;"/><path d="M230.729,44.033l-0.001,13.05l11.164,0l0,9.774c-2.098,0.498 -4.417,0.718 -6.93,0.718c-4.59,0 -8.094,-1.506 -10.528,-4.576c-2.433,-3.066 -3.641,-7.518 -3.641,-13.357c0,-5.964 1.347,-10.53 4.022,-13.738c2.71,-3.188 6.509,-4.812 11.439,-4.812c5.38,0 10.331,1.106 14.826,3.326l5.34,-13.24c-2.591,-1.129 -5.639,-2.059 -9.104,-2.792c-3.502,-0.751 -7.222,-1.107 -11.142,-1.107c-10.374,0 -18.446,2.77 -24.188,8.393c-5.759,5.619 -8.626,13.457 -8.626,23.532c0,10.35 2.629,18.328 7.874,23.908c5.265,5.581 12.708,8.37 22.327,8.37c8.768,-0.001 16.822,-1.246 24.147,-3.757l0,-33.692l-26.979,0l0,0Z" style="fill:#4d4d4d;"/></g><g><rect x="284.087" y="17.056" width="12.15" height="64.44" style="fill:#4d4d4d;"/><path d="M311.717,47.476l-7.74,0l0,-10.08l7.74,0l0,-13.5l11.79,0l0,13.5l10.8,0l0,10.08l-10.8,0l0,17.1c0,1.02 0.105,1.965 0.315,2.835c0.21,0.87 0.615,1.605 1.215,2.205c0.84,0.96 2.04,1.44 3.6,1.44c1.02,0 1.83,-0.105 2.43,-0.315c0.6,-0.21 1.17,-0.495 1.71,-0.855l3.33,10.35c-1.38,0.66 -2.865,1.155 -4.455,1.485c-1.59,0.33 -3.345,0.495 -5.265,0.495c-2.22,0 -4.215,-0.345 -5.985,-1.035c-1.77,-0.69 -3.255,-1.635 -4.455,-2.835c-2.82,-2.7 -4.23,-6.54 -4.23,-11.52l0,-19.35l0,0Z" style="fill:#4d4d4d;fill-rule:nonzero;"/><path d="M369.227,76.816l-0.72,0c-1.38,1.68 -3.045,3.12 -4.995,4.32c-1.95,1.2 -4.455,1.8 -7.515,1.8c-2.28,0 -4.425,-0.375 -6.435,-1.125c-2.01,-0.75 -3.765,-1.785 -5.265,-3.105c-1.5,-1.32 -2.67,-2.91 -3.51,-4.77c-0.84,-1.86 -1.26,-3.9 -1.26,-6.12c0,-2.28 0.45,-4.335 1.35,-6.165c0.9,-1.83 2.16,-3.405 3.78,-4.725c1.62,-1.32 3.525,-2.325 5.715,-3.015c2.19,-0.69 4.575,-1.035 7.155,-1.035c2.88,0 5.25,0.225 7.11,0.675c1.86,0.45 3.39,0.915 4.59,1.395l0,-1.35c0,-2.34 -0.93,-4.275 -2.79,-5.805c-1.86,-1.53 -4.17,-2.295 -6.93,-2.295c-4.08,0 -7.53,1.71 -10.35,5.13l-8.55,-5.85c4.68,-5.88 11.07,-8.82 19.17,-8.82c6.84,0 12.06,1.605 15.66,4.815c3.6,3.21 5.4,7.965 5.4,14.265l0,26.46l-11.61,0l0,-4.68l0,0Zm0,-13.23c-1.38,-0.66 -2.805,-1.185 -4.275,-1.575c-1.47,-0.39 -3.075,-0.585 -4.815,-0.585c-2.82,0 -4.995,0.615 -6.525,1.845c-1.53,1.23 -2.295,2.745 -2.295,4.545c0,1.8 0.735,3.24 2.205,4.32c1.47,1.08 3.165,1.62 5.085,1.62c1.56,0 3,-0.285 4.32,-0.855c1.32,-0.57 2.445,-1.32 3.375,-2.25c0.93,-0.93 1.65,-2.01 2.16,-3.24c0.51,-1.23 0.765,-2.505 0.765,-3.825Z" style="fill:#4d4d4d;fill-rule:nonzero;"/><rect x="390.197" y="17.056" width="11.79" height="64.44" style="fill:#4d4d4d;"/><path d="M418.637,31.006c-1.02,0 -1.995,-0.195 -2.925,-0.585c-0.93,-0.39 -1.74,-0.93 -2.43,-1.62c-0.69,-0.69 -1.23,-1.485 -1.62,-2.385c-0.39,-0.9 -0.585,-1.89 -0.585,-2.97c0,-1.08 0.195,-2.07 0.585,-2.97c0.39,-0.9 0.93,-1.695 1.62,-2.385c0.69,-0.69 1.5,-1.23 2.43,-1.62c0.93,-0.39 1.905,-0.585 2.925,-0.585c2.1,0 3.9,0.735 5.4,2.205c1.5,1.47 2.25,3.255 2.25,5.355c0,2.1 -0.75,3.885 -2.25,5.355c-1.5,1.47 -3.3,2.205 -5.4,2.205Zm-5.85,50.49l0,-44.1l11.79,0l0,44.1l-11.79,0Z" style="fill:#4d4d4d;fill-rule:nonzero;"/><path d="M462.107,76.816l-0.72,0c-1.38,1.68 -3.045,3.12 -4.995,4.32c-1.95,1.2 -4.455,1.8 -7.515,1.8c-2.28,0 -4.425,-0.375 -6.435,-1.125c-2.01,-0.75 -3.765,-1.785 -5.265,-3.105c-1.5,-1.32 -2.67,-2.91 -3.51,-4.77c-0.84,-1.86 -1.26,-3.9 -1.26,-6.12c0,-2.28 0.45,-4.335 1.35,-6.165c0.9,-1.83 2.16,-3.405 3.78,-4.725c1.62,-1.32 3.525,-2.325 5.715,-3.015c2.19,-0.69 4.575,-1.035 7.155,-1.035c2.88,0 5.25,0.225 7.11,0.675c1.86,0.45 3.39,0.915 4.59,1.395l0,-1.35c0,-2.34 -0.93,-4.275 -2.79,-5.805c-1.86,-1.53 -4.17,-2.295 -6.93,-2.295c-4.08,0 -7.53,1.71 -10.35,5.13l-8.55,-5.85c4.68,-5.88 11.07,-8.82 19.17,-8.82c6.84,0 12.06,1.605 15.66,4.815c3.6,3.21 5.4,7.965 5.4,14.265l0,26.46l-11.61,0l0,-4.68l0,0Zm0,-13.23c-1.38,-0.66 -2.805,-1.185 -4.275,-1.575c-1.47,-0.39 -3.075,-0.585 -4.815,-0.585c-2.82,0 -4.995,0.615 -6.525,1.845c-1.53,1.23 -2.295,2.745 -2.295,4.545c0,1.8 0.735,3.24 2.205,4.32c1.47,1.08 3.165,1.62 5.085,1.62c1.56,0 3,-0.285 4.32,-0.855c1.32,-0.57 2.445,-1.32 3.375,-2.25c0.93,-0.93 1.65,-2.01 2.16,-3.24c0.51,-1.23 0.765,-2.505 0.765,-3.825Z" style="fill:#4d4d4d;fill-rule:nonzero;"/></g></svg>